<?xml version="1.0" encoding="UTF-8" standalone="no"?>
<!-- Created with Inkscape (http://www.inkscape.org/) -->

<svg
   xmlns:dc="http://purl.org/dc/elements/1.1/"
   xmlns:cc="http://creativecommons.org/ns#"
   xmlns:rdf="http://www.w3.org/1999/02/22-rdf-syntax-ns#"
   xmlns:svg="http://www.w3.org/2000/svg"
   xmlns="http://www.w3.org/2000/svg"
   xmlns:sodipodi="http://sodipodi.sourceforge.net/DTD/sodipodi-0.dtd"
   xmlns:inkscape="http://www.inkscape.org/namespaces/inkscape"
   id="svg2"
   version="1.1"
   inkscape:version="0.48.4 r9939"
   width="174"
   height="174"
   xml:space="preserve"
   sodipodi:docname="bgce_logo_outline.svg"><metadata
     id="metadata8"><rdf:RDF><cc:Work
         rdf:about=""><dc:format>image/svg+xml</dc:format><dc:type
           rdf:resource="http://purl.org/dc/dcmitype/StillImage" /><dc:title></dc:title></cc:Work></rdf:RDF></metadata><defs
     id="defs6"><clipPath
       clipPathUnits="userSpaceOnUse"
       id="clipPath16"><path
         d="m 0,4.578e-6 139.2,0 L 139.2,138.6 0,138.6 0,4.578e-6 z"
         clip-rule="evenodd"
         id="path18"
         inkscape:connector-curvature="0" /></clipPath><clipPath
       clipPathUnits="userSpaceOnUse"
       id="clipPath26"><path
         d="m 0,6.104e-6 139.2,0 0,138.600003896 -139.2,0 L 0,6.104e-6 z"
         clip-rule="evenodd"
         id="path28"
         inkscape:connector-curvature="0" /></clipPath></defs><sodipodi:namedview
     pagecolor="#ffffff"
     bordercolor="#666666"
     borderopacity="1"
     objecttolerance="10"
     gridtolerance="10"
     guidetolerance="10"
     inkscape:pageopacity="0"
     inkscape:pageshadow="2"
     inkscape:window-width="1391"
     inkscape:window-height="876"
     id="namedview4"
     showgrid="false"
     inkscape:zoom="2.7243867"
     inkscape:cx="73.562672"
     inkscape:cy="94.697564"
     inkscape:window-x="49"
     inkscape:window-y="24"
     inkscape:window-maximized="1"
     inkscape:current-layer="g10" /><g
     id="g10"
     inkscape:groupmode="layer"
     inkscape:label="bgce_logo_outline"
     transform="matrix(1.25,0,0,-1.25,0,174)"><path
       d="m 106.8436,27.837 c 0,7.974 6.47,14.438 14.44,14.438 7.98,0 14.44,-6.464 14.44,-14.438 0,-7.973 -6.46,-14.437 -14.44,-14.437 -7.97,0 -14.44,6.464 -14.44,14.437 z"
       style="fill:#c0c0c0;fill-opacity:1;fill-rule:evenodd;stroke:none"
       id="path32"
       inkscape:connector-curvature="0" /><path
       d="m 3.6011,27.837 c 0,7.974 6.4655,14.438 14.4415,14.438 7.976,0 14.442,-6.464 14.442,-14.438 0,-7.973 -6.466,-14.437 -14.442,-14.437 -7.976,0 -14.4415,6.464 -14.4415,14.437 z"
       style="fill:#c0c0c0;fill-opacity:1;fill-rule:evenodd;stroke:none"
       id="path34"
       inkscape:connector-curvature="0" /><path
       d="m 38.0146,27.837 c 0,7.974 6.466,14.438 14.442,14.438 7.976,0 14.442,-6.464 14.442,-14.438 0,-7.973 -6.466,-14.437 -14.442,-14.437 -7.976,0 -14.442,6.464 -14.442,14.437 z"
       style="fill:#c0c0c0;fill-opacity:1;fill-rule:evenodd;stroke:none"
       id="path36"
       inkscape:connector-curvature="0" /><path
       d="m 72.4286,27.837 c 0,7.974 6.466,14.438 14.442,14.438 7.976,0 14.443,-6.464 14.443,-14.438 0,-7.973 -6.467,-14.437 -14.443,-14.437 -7.976,0 -14.442,6.464 -14.442,14.437 z"
       style="fill:#808080;fill-opacity:1;fill-rule:evenodd;stroke:none"
       id="path38"
       inkscape:connector-curvature="0" /><path
       d="m 52.3176,72.23 c -2.025,0 -3.905,-0.488 -5.641,-1.465 -1.735,-0.976 -3.097,-2.325 -4.084,-4.049 -0.986,-1.723 -1.48,-3.586 -1.48,-5.589 0,-3.039 1.021,-5.552 3.063,-7.538 2.042,-1.986 4.688,-2.979 7.938,-2.979 3.284,0 5.925,0.984 7.925,2.954 1.999,1.969 2.999,4.558 2.999,7.766 0,2.089 -0.46,3.952 -1.379,5.59 -0.919,1.638 -2.22,2.933 -3.905,3.884 -1.684,0.95 -3.496,1.426 -5.436,1.426 z m 68.556,0.025 c -2.73,0 -5.07,-0.874 -7.03,-2.623 -1.43,-1.273 -2.52,-3.183 -3.25,-5.73 6.9,0 13.8,0 20.7,0 -0.48,1.902 -1.17,3.421 -2.08,4.559 -0.91,1.137 -2.12,2.054 -3.62,2.75 -1.5,0.696 -3.07,1.044 -4.72,1.044 z m -103.054,0.178 c -1.952,0 -3.806,-0.496 -5.563,-1.489 -1.757,-0.994 -3.107,-2.33 -4.0492,-4.011 -0.9422,-1.681 -1.4133,-3.574 -1.4133,-5.679 0,-3.209 1.0567,-5.891 3.1705,-8.047 2.113,-2.156 4.715,-3.234 7.804,-3.234 1.987,0 3.82,0.488 5.501,1.464 1.68,0.976 3.017,2.347 4.01,4.113 0.993,1.765 1.49,3.633 1.49,5.602 0,1.97 -0.501,3.845 -1.502,5.628 -1.002,1.783 -2.347,3.17 -4.036,4.164 -1.69,0.993 -3.493,1.489 -5.412,1.489 z m 102.994,3.234 c 4.74,0 8.52,-1.791 11.35,-5.373 2.01,-2.529 3.03,-5.687 3.06,-9.473 -8.33,0 -16.66,0 -24.98,0 0.06,-3.218 1.09,-5.856 3.09,-7.914 1.99,-2.058 4.45,-3.087 7.38,-3.087 1.42,0 2.79,0.245 4.13,0.736 1.34,0.49 2.47,1.141 3.41,1.953 0.94,0.812 1.95,2.123 3.04,3.932 1.01,-0.526 2.01,-1.052 3.01,-1.579 -0.98,-1.935 -2.13,-3.497 -3.42,-4.685 -1.29,-1.189 -2.75,-2.093 -4.37,-2.712 -1.62,-0.62 -3.45,-0.93 -5.49,-0.93 -4.53,0 -8.07,1.481 -10.63,4.444 -2.55,2.962 -3.83,6.311 -3.83,10.046 0,3.514 1.08,6.646 3.24,9.397 2.75,3.497 6.42,5.245 11.01,5.245 z m -32.489,0 c 1.837,0 3.611,-0.28 5.321,-0.84 1.71,-0.56 3.161,-1.29 4.352,-2.19 1.186,-0.9 2.206,-2.046 3.036,-3.438 -0.94,-0.585 -1.89,-1.171 -2.832,-1.757 -2.447,3.243 -5.787,4.864 -10.019,4.864 -3.382,0 -6.191,-1.085 -8.425,-3.256 -2.235,-2.17 -3.353,-4.807 -3.353,-7.911 0,-2.018 0.514,-3.917 1.543,-5.697 1.028,-1.781 2.438,-3.163 4.231,-4.146 1.793,-0.984 3.803,-1.476 6.03,-1.476 4.078,0 7.41,1.621 9.993,4.864 0.942,-0.62 1.892,-1.239 2.832,-1.859 -1.33,-1.994 -3.108,-3.541 -5.346,-4.641 -2.238,-1.099 -4.786,-1.649 -7.644,-1.649 -4.39,0 -8.031,1.392 -10.924,4.176 -2.893,2.785 -4.339,6.172 -4.339,10.161 0,2.682 0.676,5.174 2.029,7.474 1.353,2.301 3.212,4.096 5.577,5.386 2.365,1.29 5.011,1.935 7.938,1.935 z m -36.478,0 c 2.078,0 4.016,-0.428 5.813,-1.286 1.797,-0.857 3.53,-2.27 5.199,-4.24 0,1.605 0,3.209 0,4.813 1.191,0 2.382,0 3.573,0 0,-7.359 0,-14.719 0,-22.078 0,-3.888 -0.34,-6.731 -1.021,-8.531 -0.936,-2.546 -2.561,-4.507 -4.875,-5.882 -2.314,-1.376 -5.096,-2.063 -8.346,-2.063 -2.382,0 -4.522,0.336 -6.419,1.009 -1.897,0.672 -3.441,1.575 -4.632,2.707 -1.191,1.132 -2.289,2.788 -3.293,4.968 1.293,0 2.586,0 3.88,0 1.056,-1.834 2.419,-3.192 4.088,-4.075 1.67,-0.883 3.74,-1.324 6.21,-1.324 2.436,0 4.493,0.453 6.171,1.358 1.678,0.905 2.875,2.043 3.591,3.413 0.715,1.371 1.073,3.583 1.073,6.637 0,0.476 0,0.951 0,1.426 -1.346,-1.697 -2.989,-3 -4.931,-3.908 -1.942,-0.909 -4.003,-1.363 -6.183,-1.363 -2.555,0 -4.956,0.633 -7.205,1.897 -2.248,1.265 -3.985,2.967 -5.212,5.106 -1.226,2.139 -1.839,4.491 -1.839,7.054 0,2.564 0.639,4.953 1.916,7.168 1.278,2.216 3.045,3.969 5.302,5.259 2.256,1.29 4.637,1.935 7.14,1.935 z M 3.476,85.65 c 1.1911,0 2.3822,0 3.5733,0 0,-5.153 0,-10.305 0,-15.458 1.4958,1.834 3.1703,3.205 5.0233,4.113 1.852,0.908 3.884,1.362 6.094,1.362 3.926,0 7.279,-1.421 10.058,-4.265 2.78,-2.844 4.169,-6.294 4.169,-10.352 0,-4.006 -1.402,-7.427 -4.207,-10.262 -2.805,-2.835 -6.179,-4.253 -10.122,-4.253 -2.261,0 -4.309,0.484 -6.145,1.452 -1.836,0.967 -3.4594,2.419 -4.8703,4.354 0,-1.697 0,-3.395 0,-5.093 -1.1911,0 -2.3822,0 -3.5733,0 0,12.801 0,25.601 0,38.402 z"
       style="fill:#0077cc;fill-opacity:1;fill-rule:evenodd;stroke:none"
       id="path40"
       inkscape:connector-curvature="0" /><rect
       style="fill:none;stroke:#0077cc;stroke-width:1.20000005;stroke-miterlimit:4;stroke-opacity:1;stroke-dasharray:none"
       id="rect3019"
       width="138"
       height="138"
       x="0.60000002"
       y="-138.60001"
       transform="scale(1,-1)" /></g></svg>